# xmcd
#
# Track frame offsets:
#	150
#	12361
#	25701
#	41909
#	55005
#	71152
#	82629
#	98322
#	113478
#	131356
#	142973
#	153599
#	165112
#	179413
#	191100
#	207120
#	222655
#	234818
#	256566
#	266760
#
# Disc length: 3828 seconds
#
# Revision: 1
# Processed by: cddbd v1.5.2PL0 Copyright (c) Steve Scherf et al.
# Submitted via: audiograbber 1.83.01
#
DISCID=fb0ef214
DTITLE=Various Artist - The Original Country Album
DYEAR=2005
DGENRE=Country
TTITLE0=Glen Campbell - By The Time I Get To Phoenix
TTITLE1=Dr Hook - When You're In Love With A Beautifuil Woman
TTITLE2=Kenny Rogers - Lucille
TTITLE3=Crystal Gayle - Talking In Your Sleep
TTITLE4=Billie Jo Spears - Blanket On The Ground
TTITLE5=Wanda Jackson - Cold, Cold Heart
TTITLE6=Suzy Bogguss - Somewhere Between
TTITLE7=Tanya Tucker - If It Dont't Come Easy
TTITLE8=Dottie West - Hey Mr. Dream Maker
TTITLE9=Merle Haggard And The Strangers - Workin' Man Blues
TTITLE10=Slim Whitman - The Most Beautiful Girl
TTITLE11=George Jones - She Thinks I Still Care
TTITLE12=Eddie Rabbit - I Love A Rainy Night
TTITLE13=Lacy J Dalton - Love Hurts
TTITLE14=Joe South - Games People Play
TTITLE15=Juice Newton - Its's A Heartache
TTITLE16=Faron Young - I Fall To Pieces
TTITLE17=Deana Carter - Strawberry Wine
TTITLE18=Tennessee Ernie Ford - King Of The Road
TTITLE19=Asleep At The Wheel - Lay Down Sally
EXTD=YEAR: 2005
EXTT0=
EXTT1=
EXTT2=
EXTT3=
EXTT4=
EXTT5=
EXTT6=
EXTT7=
EXTT8=
EXTT9=
EXTT10=
EXTT11=
EXTT12=
EXTT13=
EXTT14=
EXTT15=
EXTT16=
EXTT17=
EXTT18=
EXTT19=
PLAYORDER=
